<svg width="117" height="117" viewBox="0 0 117 117" fill="none" xmlns="http://www.w3.org/2000/svg">
<path d="M61.1267 25.3754C61.3235 22.7301 61.1759 15.0235 61.1267 12.9903H58.9405V27.6819C59.5307 27.6498 60.0861 27.3928 60.4927 26.9639C60.8993 26.5349 61.1262 25.9665 61.1267 25.3754Z" fill="#283A5B"></path>
<path d="M57.6178 38.799L57.5249 39.5697C57.3714 40.8922 57.151 42.5103 56.8705 44.5694C55.6233 53.7258 53.1881 71.6034 50.1627 111H30C32.9974 36.1768 36.1433 21.8037 38.8327 9.51585C39.017 8.6737 39.1992 7.84135 39.379 7H77.1848C77.4678 8.31788 77.7588 9.61212 78.061 10.9563C78.1147 11.1954 78.1688 11.436 78.2232 11.6786H38.3843C38.2932 12.1049 38.2003 12.5421 38.1055 12.9903H49.4303C49.2554 14.2256 48.4082 18.292 44.637 18.5981C42.7677 18.7566 39.8491 18.2592 37.1764 17.6634C37.1522 17.7963 37.1275 17.9302 37.1026 18.0652C37.0487 18.3579 36.9937 18.6558 36.9413 18.9588C39.2243 19.5146 41.5568 19.8423 43.9046 19.9371C44.0565 19.9371 44.2055 19.9285 44.3501 19.92C44.4865 19.9121 44.619 19.9044 44.7463 19.9044C48.9821 19.5491 50.5016 15.3788 50.7585 12.9903H57.6397V31.6937C57.6397 31.8677 57.7088 32.0345 57.8318 32.1575C57.9548 32.2805 58.1216 32.3496 58.2956 32.3496C58.4695 32.3496 58.6363 32.2805 58.7593 32.1575C58.8823 32.0345 58.9514 31.8677 58.9514 31.6937V29.0101C59.8765 28.9768 60.7537 28.5907 61.4032 27.9311C62.0526 27.2715 62.425 26.3884 62.444 25.4629C62.6353 22.7301 62.4877 15.0837 62.444 12.9794H65.2424C65.5047 15.3679 67.0242 19.5491 71.2546 19.8934C71.5497 19.9262 71.8011 19.9262 72.0963 19.9262C74.6576 19.8133 77.2006 19.4372 79.6849 18.8039C82.0082 31.3169 84.588 52.9456 86.5638 111H66.5487L66.5487 110.994H66.5212L66.0731 106.431C65.6631 101.725 64.969 94.7561 64.1765 87.0495L59.4369 38.6212C59.423 38.5031 59.4124 38.4125 59.4051 38.3509L64.1711 87.0496C62.198 67.8653 59.6019 44.128 59.0553 39.5697L58.9678 38.799C58.9763 38.7053 58.9651 38.6108 58.935 38.5216C58.9049 38.4324 58.8566 38.3505 58.7931 38.281C58.7296 38.2115 58.6523 38.156 58.5662 38.1181C58.4801 38.0801 58.387 38.0605 58.2928 38.0605C58.1987 38.0605 58.1056 38.0801 58.0195 38.1181C57.9333 38.156 57.8561 38.2115 57.7926 38.281C57.7291 38.3505 57.6807 38.4324 57.6506 38.5216C57.6206 38.6108 57.6094 38.7053 57.6178 38.799Z" fill="#283A5B"></path>
<path d="M79.4393 17.5082C79.4438 17.5071 79.4484 17.506 79.453 17.5049C79.5368 17.9276 79.6188 18.3594 79.699 18.8003C79.6943 18.8015 79.6896 18.8027 79.6849 18.8039C79.6027 18.361 79.5208 17.9295 79.4393 17.5082Z" fill="#283A5B"></path>
<path d="M79.4393 17.5082C76.6059 18.1791 73.3774 18.7618 71.3639 18.5981C67.5981 18.292 66.7454 14.2474 66.5705 12.9903H78.5075C78.8111 14.3896 79.1225 15.8719 79.4393 17.5082Z" fill="#283A5B"></path>
</svg>