<svg width="447" height="448" viewBox="0 0 447 448" fill="none" xmlns="http://www.w3.org/2000/svg">
<path d="M233.102 97.6204C233.853 87.5325 233.29 58.1442 233.102 50.3907H224.765V106.416C227.016 106.294 229.134 105.314 230.685 103.678C232.235 102.042 233.1 99.8744 233.102 97.6204Z" fill="#283A5B"></path>
<path d="M211.292 424.143H108.403C116.5 146.835 133.83 83.9999 144.086 37.1411C144.789 33.9297 145.483 30.7555 146.169 27.5471H298.339C299.418 32.5728 300.528 37.5082 301.68 42.6342C301.885 43.5458 302.091 44.4633 302.299 45.3885H142.376C142.028 47.0143 141.674 48.6817 141.313 50.3908H188.499C187.832 55.1013 184.601 70.6083 170.22 71.7755C163.092 72.3799 147.962 70.4832 137.77 68.2114C137.677 68.7179 137.583 69.2285 137.488 69.7433C137.283 70.8597 137.073 71.9956 136.873 73.1511C145.579 75.2707 158.474 76.5204 167.427 76.882C168.006 76.882 168.575 76.8488 169.126 76.8167C169.646 76.7863 170.151 76.7569 170.637 76.7569C186.79 75.4021 192.584 59.4991 193.564 50.3908H219.805V121.715C219.805 122.378 220.068 123.014 220.537 123.483C221.007 123.952 221.643 124.216 222.306 124.216C222.969 124.216 223.606 123.952 224.075 123.483C224.544 123.014 224.807 122.378 224.807 121.715V111.481C228.335 111.354 231.68 109.882 234.157 107.366C236.633 104.851 238.053 101.483 238.126 97.954C238.855 87.5326 238.292 58.3736 238.126 50.3491H248.797C249.798 59.4574 255.592 75.4021 271.724 76.7152C272.85 76.8403 273.809 76.8403 274.934 76.8403C284.702 76.4098 298.399 74.9756 307.873 72.5603C316.732 120.278 332.105 145.994 335.105 424.143L236.674 424.122C236.674 424.122 226.092 135.994 222.296 135.994C218.5 135.994 211.292 424.143 211.292 424.143Z" fill="#283A5B"></path>
<path d="M306.936 67.6194C306.953 67.6152 306.971 67.6111 306.988 67.6069C307.308 69.2188 307.621 70.8653 307.926 72.5467C307.908 72.5512 307.891 72.5558 307.873 72.5603C307.559 70.8713 307.247 69.2259 306.936 67.6194Z" fill="#283A5B"></path>
<path d="M306.936 67.6194C296.131 70.1778 279.82 72.3998 272.141 71.7755C257.78 70.6083 254.529 55.1846 253.862 50.3908H303.383C304.541 55.7267 305.728 61.3793 306.936 67.6194Z" fill="#283A5B"></path>
</svg>