<svg fill="none" height="447" viewBox="0 0 447 447" width="447" xmlns="http://www.w3.org/2000/svg"><path clip-rule="evenodd" d="m241.524 423.291h84.438s-7.282-108.664-13.87-178.291c.352-5.476-7.177-107.333-12.158-170.029-5.654.7767-11.349 1.2099-17.056 1.2968-3.609.0662-7.214-.2844-10.742-1.0449-15.779-3.8663-17.66-22.3408-17.869-27.6491h-16.99c.188 9.7806.773 49.5092 0 60.1462-.073 3.534-1.495 6.905-3.974 9.423-2.479 2.519-5.828 3.992-9.36 4.12v6.081c0 .666-.264 1.303-.734 1.774-.471.47-1.109.734-1.774.734s-1.303-.264-1.773-.734c-.47-.471-.734-1.108-.734-1.774v-79.6657h-28.277c-.209 5.3083-2.11 23.7828-17.868 27.6491-3.529.7594-7.133 1.11-10.742 1.0449-6.39-.1223-12.764-.6596-19.082-1.6081-5.168 64.3578-13.205 170.2358-13.205 170.2358l-14.912 178.291h84.521c.298-5.536.526-15.446.822-28.33.842-36.67 2.237-97.426 7.385-149.961 3.762-38.394 7.863-72.398 9.913-89.401.447-3.708.797-6.608 1.024-8.569l.356-2.946c-.033-.359.01-.72.125-1.061s.3-.654.543-.92.538-.478.868-.623c.329-.145.685-.22 1.045-.22s.716.075 1.045.22.625.357.868.623c.242.266.427.579.542.92s.158.702.126 1.061l.355 2.946c.359 3.139 1.198 8.688 2.319 16.108 2.79 18.459 7.331 48.503 10.601 81.862 4.905 50.035 4.425 107.527 4.115 144.567-.129 15.511-.229 27.436.109 33.724zm-98.159-353.5721c10.28 1.5086 21.362 2.3697 28.227.6972 12.079-2.9676 13.793-18.2237 14.023-22.7796h-40.438c-.53 6.3154-1.143 13.7934-1.812 22.0824zm2.236-27.0981c.768-8.9833 1.309-14.7657 1.516-15.9255h148.653c.211 1.1798.754 6.9589 1.52 15.9255zm152.113 5.0157h-38.452c.23 4.5559 1.923 19.812 14.023 22.7796 6.421 1.6439 16.528.9254 26.248-.4662-.67-8.3811-1.286-15.9393-1.819-22.3134zm-67.868 65.8335c1.553-1.638 2.424-3.806 2.436-6.063.752-10.3031.167-50.2825 0-59.7705h-8.36v68.5895c2.253-.132 4.372-1.118 5.924-2.756z" fill="#2c4951" fill-rule="evenodd"></path></svg>