<svg width="117" height="117" viewBox="0 0 117 117" fill="none" xmlns="http://www.w3.org/2000/svg">
<path fill-rule="evenodd" clip-rule="evenodd" d="M80.4195 10.1964L37.8453 10.1307C38.1034 8.71899 38.3132 7.73304 38.4506 7.08762L38.4506 7.0876C38.5198 6.76233 38.5706 6.52355 38.5999 6.36035H79.6485C79.6763 6.5076 79.7212 6.71648 79.781 6.99474L79.781 6.9949C79.9213 7.64736 80.1435 8.68123 80.4195 10.1964ZM75.9139 20.6156C74.0249 20.6858 72.1594 20.178 70.5662 19.1599C68.4829 17.7098 67.3947 15.2418 67.3346 11.8217H63.0367L62.7742 25.9401C62.7742 26.1754 62.7742 31.3029 59.3622 31.9212V34.6574C59.3622 35.1107 58.995 35.4782 58.542 35.4782C58.089 35.4782 57.7218 35.1107 57.7218 34.6574V11.8052H50.9195C50.8648 15.2363 49.7767 17.7153 47.6879 19.1709C46.0947 20.189 44.2292 20.6968 42.3402 20.6265C40.3296 20.5848 38.3362 20.2474 36.4238 19.6251C34.6958 33.5848 32.5961 60.5904 32.782 110.464H46.7638L57.3663 39.8396C57.4084 39.4207 57.7604 39.1015 58.1811 39.1008H60.0566C60.4773 39.1015 60.8293 39.4207 60.8714 39.8396L71.4794 110.486H85.4721C85.6471 60.5904 83.5583 33.5848 81.8304 19.647C79.9162 20.2576 77.9228 20.584 75.9139 20.6156ZM71.5012 17.8138C74.5524 19.9425 79.6267 18.6127 81.6226 17.9615C81.2945 15.4771 80.9828 13.4579 80.7094 11.8435H68.975C69.0297 14.6672 69.8772 16.6865 71.5012 17.8138ZM61.3963 11.8107L61.1338 25.9401C61.1338 25.9784 61.1119 29.5025 59.3622 30.2139V11.8107H61.3963ZM49.2791 11.7943C49.2299 14.6508 48.3933 16.6755 46.7529 17.8138C43.6962 19.9206 38.6274 18.6127 36.637 17.9834C36.9651 15.4607 37.2768 13.436 37.5556 11.7943H49.2791Z" fill="#283A5B"></path>
</svg>