<svg width="117" height="117" viewBox="0 0 117 117" fill="none" xmlns="http://www.w3.org/2000/svg">
<path fill-rule="evenodd" clip-rule="evenodd" d="M65.6956 111H83.1175C82.0557 57.6274 80.4751 31.9316 79.2621 19.3053C79.2702 19.3918 79.2785 19.479 79.2869 19.5668C77.5964 19.829 75.8898 19.9737 74.1793 19.9997C73.2329 20.0171 72.2877 19.9251 71.3624 19.7257C67.2247 18.7118 66.7315 13.8672 66.6767 12.4752H62.2212C62.2705 15.04 62.424 25.4581 62.2212 28.2476C62.2022 29.1741 61.8294 30.0582 61.1792 30.7186C60.5291 31.3789 59.6509 31.7654 58.7248 31.7988V33.3936C58.7248 33.568 58.6555 33.7353 58.5322 33.8586C58.4088 33.982 58.2415 34.0512 58.0671 34.0512C57.8927 34.0512 57.7254 33.982 57.6021 33.8586C57.4788 33.7353 57.4095 33.568 57.4095 33.3936V12.5026H49.9946C49.9398 13.8946 49.4411 18.7392 45.309 19.7531C44.3836 19.9522 43.4384 20.0442 42.4921 20.0271C40.6058 19.991 38.7247 19.817 36.8638 19.5065C36.9076 19.0534 36.9515 18.615 36.9953 18.1912C39.8506 18.6406 43.062 18.9365 44.9966 18.4652C48.1642 17.687 48.6136 13.6864 48.6739 12.4917H37.653C37.693 12.1752 37.7354 11.8756 37.7754 11.5929C37.7957 11.4497 37.8154 11.3109 37.8338 11.1764H78.3005C78.3587 11.5628 78.4169 11.985 78.4801 12.4429L78.4868 12.4917H67.9865C68.0468 13.6864 68.4907 17.687 71.6638 18.4652C73.4828 18.9309 76.4301 18.6736 79.1587 18.2518C78.4823 11.5006 77.9325 8.82848 77.6718 7.56099C77.6251 7.33409 77.5877 7.15221 77.5605 7H38.579C38.5517 7.15235 38.5142 7.33443 38.4675 7.56162C37.7341 11.1263 34.7156 25.7967 33 111H50.4438C50.9426 101.738 56.4612 45.7842 57.2997 38.5557L57.3929 37.7829C57.3844 37.6889 57.3956 37.5942 57.4258 37.5048C57.456 37.4153 57.5044 37.3332 57.5681 37.2635C57.6318 37.1939 57.7093 37.1382 57.7956 37.1001C57.882 37.0621 57.9753 37.0424 58.0697 37.0424C58.1641 37.0424 58.2574 37.0621 58.3438 37.1001C58.4302 37.1382 58.5077 37.1939 58.5713 37.2635C58.635 37.3332 58.6835 37.4153 58.7136 37.5048C58.7438 37.5942 58.755 37.6889 58.7465 37.7829L58.8397 38.5557C59.6672 45.7842 65.1969 101.733 65.6956 111ZM60.2727 29.7553C60.6799 29.3257 60.9083 28.7572 60.9114 28.1654C61.1087 25.4636 60.9553 14.9797 60.9114 12.4917H58.7193V30.4781C59.3101 30.4433 59.8656 30.1848 60.2727 29.7553Z" fill="#283A5B"></path>
</svg>