<svg width="117" height="117" viewBox="0 0 117 117" fill="none" xmlns="http://www.w3.org/2000/svg">
<path fill-rule="evenodd" clip-rule="evenodd" d="M37.8862 10.1307L79.3111 10.1964C78.9606 8.03486 78.6978 6.85285 78.5718 6.36035H38.5927C38.5679 6.49805 38.5295 6.68954 38.4791 6.94139L38.4791 6.9414C38.3512 7.58036 38.1454 8.60779 37.8862 10.1307ZM75.5214 19.9479C73.3636 19.9479 71.1017 19.543 69.3657 18.257C67.5091 16.878 66.5288 14.711 66.4685 11.8162H62.728C62.865 15.3129 63.2045 26.9032 62.1147 29.1413C61.1836 31.0566 59.7981 31.6531 58.7301 31.7188V33.6012C58.7301 34.0545 58.3623 34.422 57.9086 34.422C57.4549 34.422 57.0871 34.0545 57.0871 33.6012V11.8052H50.7507C50.696 14.7001 49.7376 16.8725 47.8536 18.2789C46.1175 19.5649 43.8557 19.9698 41.6979 19.9698C39.9949 19.9517 38.2993 19.7424 36.643 19.346C35.0603 33.2017 33.1544 60.2347 33.3078 110.486H46.9993C48.0562 72.3557 56.8571 38.1979 56.8571 38.1979C56.8993 37.779 57.2518 37.4598 57.6731 37.4591H59.5352C59.9565 37.4598 60.3091 37.779 60.3512 38.1979C60.3512 38.1979 69.1576 72.3557 70.2091 110.486H83.9006C84.0758 60.2347 82.1699 33.2017 80.6146 19.3241C78.9457 19.7226 77.2372 19.9319 75.5214 19.9479ZM60.6413 28.419C61.3807 26.8922 61.3095 17.7372 61.0849 11.8107H58.73V30.0662C59.2503 30.0114 60.0225 29.6886 60.6413 28.419ZM46.8789 16.9327C48.3028 15.8766 49.0695 14.1474 49.1024 11.7888H37.6398C37.3989 13.3539 37.125 15.3075 36.8348 17.6989C39.3321 18.2789 44.0858 19.0122 46.8789 16.9327ZM80.3847 17.6824C77.9092 18.268 73.1391 19.0122 70.3406 16.9327C68.9057 15.8821 68.1773 14.1638 68.1171 11.8381H79.5906C79.837 13.3977 80.0999 15.3239 80.3847 17.6824Z" fill="#283A5B"></path>
</svg>