<svg width="447" height="447" viewBox="0 0 447 447" fill="none" xmlns="http://www.w3.org/2000/svg">
<path d="M233.102 104.394C233.853 94.3062 233.29 64.9179 233.102 57.1644H224.765V113.19C227.016 113.067 229.134 112.087 230.684 110.451C232.235 108.816 233.1 106.648 233.102 104.394Z" fill="#283A5B"></path>
<path d="M219.721 155.584L219.367 158.523C219.367 158.523 205.291 217.93 200.475 302.5C195.671 348.326 199.965 396.102 197.292 430.917H118.03C119.196 372.608 126.543 323.937 128.036 283C133.867 123.139 139.92 81.2204 148.086 43.9148C148.788 40.7033 149.483 37.5292 150.169 34.3208H294.338C295.418 39.3464 296.527 44.2819 297.68 49.4079C297.885 50.3195 298.091 51.237 298.298 52.1622H146.376C146.028 53.7879 145.674 55.4554 145.313 57.1645H188.499C187.832 61.8749 184.601 77.382 170.22 78.5492C163.091 79.1536 151.961 77.2569 141.769 74.985C141.677 75.4915 141.583 76.0022 141.488 76.517C141.282 77.6334 141.073 78.7693 140.873 79.9248C149.579 82.0444 158.474 83.2941 167.427 83.6556C168.006 83.6556 168.574 83.6225 169.126 83.5903C169.646 83.56 170.151 83.5306 170.637 83.5306C186.79 82.1758 192.584 66.2728 193.564 57.1645H219.805V128.488C219.805 129.152 220.068 129.788 220.537 130.257C221.006 130.726 221.642 130.99 222.306 130.99C222.969 130.99 223.605 130.726 224.074 130.257C224.543 129.788 224.807 129.152 224.807 128.488V118.255C228.335 118.128 231.68 116.655 234.156 114.14C236.633 111.625 238.053 108.257 238.125 104.728C238.855 94.3063 238.292 65.1473 238.125 57.1228H248.797C249.797 66.2311 255.592 82.1758 271.724 83.4889C272.849 83.6139 273.808 83.6139 274.934 83.6139C284.701 83.1835 294.399 81.7493 303.873 79.334C310.813 116.716 313.808 140.73 317.596 283C318.644 322.337 325.599 370.716 326.478 430.917H247.593C247.593 430.917 244.727 352.689 243.209 302.5C241.41 243.039 225.203 158.523 225.203 158.523L224.869 155.584C224.902 155.227 224.859 154.866 224.744 154.526C224.63 154.186 224.445 153.873 224.203 153.609C223.961 153.344 223.666 153.132 223.338 152.987C223.009 152.842 222.654 152.768 222.295 152.768C221.936 152.768 221.581 152.842 221.253 152.987C220.924 153.132 220.63 153.344 220.388 153.609C220.145 153.873 219.961 154.186 219.846 154.526C219.732 154.866 219.689 155.227 219.721 155.584Z" fill="#283A5B"></path>
<path d="M302.936 74.393C302.953 74.3889 302.971 74.3847 302.988 74.3806C303.308 75.9924 303.62 77.639 303.926 79.3203C303.908 79.3249 303.89 79.3294 303.873 79.334C303.559 77.645 303.247 75.9995 302.936 74.393Z" fill="#283A5B"></path>
<path d="M302.936 74.393C292.131 76.9515 279.819 79.1734 272.141 78.5492C257.78 77.382 254.529 61.9583 253.862 57.1645H299.382C300.54 62.5004 301.728 68.153 302.936 74.393Z" fill="#283A5B"></path>
</svg>