<svg width="117" height="117" viewBox="0 0 117 117" fill="none" xmlns="http://www.w3.org/2000/svg">
<path fill-rule="evenodd" clip-rule="evenodd" d="M39.0348 10.1253L79.8028 10.1964C79.5355 8.5433 79.3267 7.46311 79.2035 6.82611C79.1656 6.63019 79.1359 6.4762 79.115 6.36035H39.6948C39.5894 6.84191 39.362 8.0075 39.0348 10.1253ZM47.571 17.5347C49.1296 16.3527 49.9394 14.421 49.9727 11.7888H38.7851C38.5355 13.5345 38.2581 15.7507 37.9586 18.5252C39.7003 18.9082 44.6202 19.7728 47.571 17.5347ZM61.7539 25.6829C62.5027 24.1671 62.4417 16.6865 62.2143 11.8107H59.5463V27.3355C60.162 27.3081 61.0994 27.0345 61.7539 25.6829ZM80.8454 18.5033C79.1037 18.9082 74.1838 19.7728 71.2385 17.5347C69.691 16.3582 68.8756 14.4483 68.8313 11.8381H80.03C80.2907 13.5782 80.5514 15.7671 80.8454 18.5033ZM76.63 20.6539C74.489 20.6539 72.0873 20.2489 70.2292 18.8371C68.249 17.3322 67.2173 14.9792 67.1674 11.8162H63.8838C64.0169 14.8807 64.3386 24.1999 63.2515 26.4052C62.6263 27.8996 61.1829 28.9036 59.5463 28.9826V31.4123C59.5463 31.8657 59.1738 32.2332 58.7143 32.2332C58.2548 32.2332 57.8823 31.8657 57.8823 31.4123V11.7998H51.6367C51.5979 14.9737 50.5718 17.3377 48.5805 18.848C46.7168 20.2489 44.304 20.6539 42.1797 20.6539C40.7011 20.6441 39.2281 20.4753 37.7867 20.1504C36.3668 34.2634 34.7194 61.2197 34.8747 110.486H51.1985L58.1707 36.009C58.2134 35.5901 58.5704 35.271 58.9972 35.2703H59.7903C60.2171 35.271 60.5741 35.5901 60.6168 36.009L67.6 110.486H83.9072C84.0847 61.2361 82.4374 34.2634 81.0174 20.1504C79.5778 20.475 78.1067 20.6438 76.63 20.6539Z" fill="#283A5B"></path>
</svg>