<svg width="117" height="117" viewBox="0 0 117 117" fill="none" xmlns="http://www.w3.org/2000/svg">
<path fill-rule="evenodd" clip-rule="evenodd" d="M40.5398 7.014C40.4029 7.65714 40.1885 8.6642 39.9294 10.1307L77.3297 10.1909C77.0682 8.73132 76.8523 7.71813 76.7127 7.06305C76.6461 6.75048 76.5968 6.51944 76.5683 6.36035H40.6742C40.6469 6.51099 40.6011 6.72601 40.5398 7.014ZM46.997 15.5428C48.0618 14.7876 48.6521 13.5181 48.7128 11.7779H39.6482C39.4606 12.9216 39.262 14.2787 39.0524 15.8602C40.9171 16.3691 44.7736 17.1352 46.997 15.5428ZM58.7979 23.68C60.5799 23.1328 60.5854 20.6156 60.5854 20.4678V11.8053H58.7979V23.68ZM66.8749 11.8162C66.9631 14.1091 67.7686 15.789 69.2803 16.8835C70.6669 17.7719 72.2988 18.2081 73.9477 18.1312C75.447 18.1053 76.937 17.8939 78.3835 17.5019C79.9944 30.7721 81.8372 57.9527 80.2317 110.486H68.0003C67.4596 84.23 64.9108 58.0522 60.3757 32.1784C60.3333 31.7595 59.9782 31.4404 59.5537 31.4397H57.6669C57.2424 31.4404 56.8873 31.7595 56.8448 32.1784C52.3099 58.0521 49.7629 84.23 49.2257 110.486H36.9834C35.3889 57.9309 37.2316 30.7721 38.8426 17.5128C40.3034 17.9079 41.8085 18.1194 43.3225 18.1421C44.9621 18.2133 46.5835 17.7773 47.9623 16.8944C49.4795 15.8164 50.285 14.1036 50.3678 11.7998H57.1427V28.129C57.1427 28.5823 57.5132 28.9498 57.9703 28.9498C58.4273 28.9498 58.7979 28.5823 58.7979 28.129V25.3928C61.5454 24.9222 62.2405 22.0055 62.2405 20.4678V11.8162H66.8749ZM70.2459 15.5428C72.4527 17.1297 76.3147 16.3636 78.185 15.8492C77.9864 14.3006 77.7878 12.9653 77.6057 11.8326H68.5301C68.6129 13.5454 69.1866 14.7985 70.2459 15.5428Z" fill="#283A5B"></path>
</svg>